<svg width="79" height="72" viewBox="0 0 79 72" fill="none" xmlns="http://www.w3.org/2000/svg">
<path d="M11.6406 60.3585H33.5957V44.6534H11.6406V60.3585ZM11.6406 39.8457H33.5957V11.6406H11.6406V39.8457ZM38.4034 60.3585H60.3585V32.1534H38.4034V60.3585ZM38.4034 27.3457H60.3585V11.6406H38.4034V27.3457ZM8.11509 71.4161C6.01037 71.4161 4.22884 70.687 2.77051 69.2286C1.31217 67.7703 0.583008 65.9888 0.583008 63.884V8.1151C0.583008 6.01037 1.31217 4.22884 2.77051 2.77051C4.22884 1.31217 6.01037 0.583008 8.11509 0.583008H63.884C65.9888 0.583008 67.7703 1.31217 69.2286 2.77051C70.687 4.22884 71.4161 6.01037 71.4161 8.1151V16.7689H78.7878V23.0187H71.4161V32.8747H78.7878V39.1245H71.4161V48.9804H78.7878V55.2302H71.4161V63.884C71.4161 65.9888 70.687 67.7703 69.2286 69.2286C67.7703 70.687 65.9888 71.4161 63.884 71.4161H8.11509ZM8.11509 65.1662H63.884C64.2046 65.1662 64.4985 65.0327 64.7656 64.7656C65.0327 64.4985 65.1662 64.2046 65.1662 63.884V8.1151C65.1662 7.79454 65.0327 7.50068 64.7656 7.23353C64.4985 6.96645 64.2046 6.83291 63.884 6.83291H8.11509C7.79454 6.83291 7.50068 6.96645 7.23353 7.23353C6.96644 7.50068 6.8329 7.79454 6.8329 8.1151V63.884C6.8329 64.2046 6.96644 64.4985 7.23353 64.7656C7.50068 65.0327 7.79454 65.1662 8.11509 65.1662Z" fill="#DDDDDD"/>
</svg>